<svg xmlns="http://www.w3.org/2000/svg" height="1333.333" width="1333.333"><defs><clipPath id="a"><path d="M475.102 908.481c-13.333-2.266-26.672-4.565-39.992-6.845 4.794-9.24 10.044-17.99 15.695-26.36-22.213.926-44.474 1.844-66.686 2.769 10.272-37.361 24.837-72.159 43.109-103.581 5.065 3.817 10.172 7.587 15.228 11.404-11.51-50.93-31.857-84.155-31.857-84.155-11.143 26.578-24.962 50.305-38.857 70.465 5.536 22.481 3.427 45.017.852 59.449 3.102-.708 6.231-1.436 9.371-2.171 2.072 17.794 1.756 36.362-.931 55.292-11.34-5.531-22.683-11.03-34.032-16.521 4.206-9.873 7.185-20.848 8.822-32.633a598.947 598.947 0 0 0 9.743-2.299c2.804-18.665-.922-38.561-3.191-48.059-10.489 14.179-20.732 26.141-29.415 35.64 7.761 34.777 11.244 71.52 10.009 109.427-24.093-8.574-48.198-17.161-72.329-25.727 6.293-20.828 9.896-43.575 10.506-67.716 10.182-3.654 20.378-7.246 30.565-10.873 7.165-7.213 13.822-14.855 20.004-22.544-8.58-.455-26.458-.489-43.439 5.002a301.16 301.16 0 0 1 7.142 3.239c-18.764 31.116-42.228 60.599-70.019 87.611-11.381-22.909-22.808-45.833-34.209-68.756 19.008-10.595 37.45-24.455 54.658-41.398 10.871 4.926 21.774 9.887 32.643 14.826 13.487-7.307 35.18-15.282 62.015-11.683 18.593-24.726 29.187-45.594 33.593-53.48-6.954 2.047-13.555 3.401-19.542 4.313-1.113 8.628-2.181 17.249-3.283 25.843-21.618 2.987-42.571 8.641-62.317 16.82-4.066-32.267-8.165-64.545-12.227-96.812 28.339 2.123 56.047 7.784 82.526 16.808-1.215 9.77-2.477 19.541-3.723 29.325 21.611-5.129 30.855-19.242 30.855-19.242 10.195-22.666 24.723-61.518 38.549-100.05-6.562 2.83-16.653 7.934-31.334 16.868 2.77 1.755 5.509 3.497 8.237 5.239-14.234 17.549-31.255 33.633-50.688 47.827-5.022-15.092-10.057-30.17-15.062-45.254 12.612-4.872 25.163-11.807 37.216-20.719 3.971 2.51 7.941 5.048 11.911 7.579 13.276-9.498 30.738-21.522 46.586-30.897 18.007-50.911 33.14-96.261 33.14-96.261-10.574 8.805-58.956 40.825-104.449 70.438-11.939 17.976-22.182 41.465-29.684 61.333 1.357-.102 2.759-.224 4.167-.327-.622 17.433-3.578 35.295-8.96 53.095a10448.814 10448.814 0 0 1-30.347-20.856c5.497-8.906 9.968-19.018 13.251-30.143 3.157-.251 6.3-.523 9.481-.775 6.257-21.625 13.251-40.635 14.684-44.452a22005.21 22005.21 0 0 1-43.295 27.897c-8.091 5.198-17.515 14.071-27.065 24.441 10.319 21.257 9.932 55.965 7.549 68.818 2.698.307 5.366.653 8.044.974-4.175 17.411-10.785 34.749-19.774 51.603-8.804-9.044-17.568-18.106-26.346-27.176 7.325-7.798 13.904-17.079 19.464-27.605 3.943.476 7.88.931 11.86 1.395 1.031-25.156-6.321-51.597-8.652-59.225-18.78 21.699-36.882 46.882-45.33 59.013a246.005 246.005 0 0 0 24.958 6.614c-14.868 28.933-29.741 57.885-44.602 86.809a330.044 330.044 0 0 1-58.615-60.483c14.077-15.895 28.18-31.763 42.288-47.67 8.859 4.45 17.94 8.321 27.166 11.696 7.386-12.466 16.701-23.713 25.156-34.675-5.471-.714-24.006-1.034-38.21 2.851.507 4.403 1.058 8.757 1.562 13.146-16.544 5.505-33.923 8.887-51.586 10.071 2.714-20.148 5.402-40.247 8.144-60.388 12.275 5.218 25.322 8.846 38.794 10.826.8 6.851 1.626 13.751 2.426 20.637 8.666-2.905 22.472-6.049 42.837-6.479 12.88-16.975 23.016-30.972 23.016-30.972-57.725 18.542-98.663 5.872-110.149 1.443-2.187 3.565-4.385 7.138-6.559 10.695-17.685-3.286-34.787-4.164-50.93-2.823-2.521-18.875-5.045-37.743-7.511-56.611 28.363 5.096 55.121 13.506 79.63 24.916l-8.883 14.473c16.05 5.076 51.828 12.588 92.514-3.327 13.846-5.376 31.186-14.139 50.13-25.094-16.626-1.926-46.548-5.348-67.247-7.396-.629 4.845-1.254 9.669-1.843 14.534-21.651 2.939-42.588 8.608-62.351 16.792-4.066-32.299-8.138-64.538-12.2-96.832 28.313 2.137 56.057 7.785 82.535 16.814-1.744 13.942-3.538 27.89-5.313 41.805 22.396 1.267 58.762 3.424 81.607 5.179 22.6-13.853 46.589-30.259 69.005-47.453-10.114-1.687-30.963-3.92-55.751 0 .575 4.545 1.12 9.104 1.657 13.704-28.19.067-57.162-3.62-86.223-11.158 10.352-16.365 20.647-32.71 30.979-49.053-7.481.45-14.662.706-21.382.782-12.867-.382-24.193-.15-33.542-1.443-4.59-.461-8.753-.892-12.445-1.279-3.779-.421-7.073-.796-9.849-1.095.092-3.423.419-8.601.537-10.097-3.603-.354-9.574-.986-12.468-1.301 0 0 .354-7.137.439-8.328.109-1.844.272-2.729.414-3.04-1.659-.157-7.739-.3-7.787-.518l.098-1.396c.014-1.067.08-2.089.12-3.081.064-1.49.17-2.858.234-4.042.028-.626.096-.952.14-1.409-1.976-.223-8.856-.823-8.856-.823.045-1.13.194-6.009.245-6.893-1.752-.109-10.332-.721-11.077-.823V399.27c0-104.942.268-199.937.745-268.735.34-34.246.609-62.034.83-81.434.174-9.493.853-29.897.963-29.897.176 0 157.073 32.374 300.905 21.182 28.891-12.255 87.986-15.173 117.033.713 141.005 9.044 290.693-21.895 290.836-21.895.129 0 .809 20.404 1.026 29.897.171 19.4.436 47.188.778 81.434.461 68.798.747 163.793.747 268.735V446.444c-.747.102-9.302.714-11.076.823.047.884.19 5.763.257 6.893 0 0-6.912.6-8.859.823.035.457.076.783.129 1.409.082 1.184.17 2.552.225 4.042.068.992.095 2.014.142 3.081l.104 1.396c-.075.218-6.118.361-7.828.518.152.311.307 1.196.439 3.04.086 1.191.441 8.328.441 8.328-2.878.315-8.866.947-12.471 1.301.129 1.496.42 6.674.55 10.097-2.796.299-6.077.674-9.873 1.095-3.689.387-7.825.818-12.438 1.279-9.322 1.293-20.673 1.061-33.558 1.443-24.844-.293-55.591-2.77-88.061-9.866.257 6.723.501 13.405.762 20.106-14.453 1.246-29.363 4.628-44.426 10.213-4.845-5.558-9.689-11.043-14.567-16.581-5.921 1.095-15.692 3.122-25.367 6.095 31.762 28.219 72.561 53.68 72.561 53.68 40.764-15.288 69.839-14.97 84.945-12.955 1.374-7.294 2.708-14.622 4.054-21.965 20.759-3.816 39.859-10.021 56.945-18.331 10.69 19.605 21.332 39.193 32.043 58.817-3.403.653-6.785 1.218-10.173 1.77a13432.19 13432.19 0 0 0 8.308 23.623c2.789-2.271 5.633-4.585 8.463-6.844 20.931 12.111 42.173 20.963 63.226 26.496-5.294 25.04-10.642 50.072-15.949 75.098-33.654-19.235-63.729-41.934-89.659-67.423a704.845 704.845 0 0 0 5.653-4.573c-14.628-1.13-29.592-3.477-42.438-5.837-1.829 3.673-2.877 7.926-3.436 12.111 1.85-.728 3.647-1.456 5.476-2.171 4.432 8.308 7.997 17.235 10.705 26.611-8.954.552-17.854 1.109-26.823 1.634.748-7.063.68-14.411-.142-21.814 2.117-.851 4.171-1.634 6.239-2.478.434-5.994 1.891-11.553 2.904-14.826-14.54-2.851-25.568-5.477-28.857-6.008 2.921 20.386 18.04 47.63 25.341 59.891 7.92-5.253 15.602-10.955 22.93-17.133 17.42 12.207 34.791 24.379 52.203 36.573-11.119 25.666-25.551 50.005-43.031 72.397-21.162-24.685-42.323-49.413-63.485-74.111 9.242-4.363 18.243-9.357 26.987-14.834-15.794-19.617-32.988-66.246-32.988-66.246-8.151-2.035-16.649-4.662-25.217-7.704.055 9.01-2.109 18.788-5.142 27.981.175 0 .352-.015.543-.015-.626 17.432-3.613 35.274-8.967 53.047-10.133-6.934-20.236-13.888-30.375-20.829 5.519-8.913 9.982-19.004 13.253-30.156 5.377-.408 10.732-.83 16.088-1.265 3.966-15.263 4.367-26.605 4.089-32.675-24.237-9.471-49.01-21.902-70.989-33.986 2.402 7.599 6.402 17.316 10.267 25.89 6.608-.688 13.221-1.375 19.849-2.082 6.354 12.519 13.995 23.522 22.521 32.83-10.479 10.533-20.99 21.113-31.476 31.633-2.423-4.723-4.736-9.478-6.818-14.228-10.234 2.273-20.426 4.586-30.638 6.852 6.64 14.609 11.082 24.421 11.082 24.421 30.354 17.079 43.637 35.001 48.924 44.487 4.857-10.316 9.77-20.59 14.656-30.892 30.843 19.303 59.891 43.302 86.414 71.546-23.129 10.962-46.215 21.978-69.336 32.975-10.248-19.175-23.808-37.839-40.457-55.32 2.02-4.232 4.001-8.464 6.041-12.69-19.67-25.747-43.051-33.552-43.051-33.552 9.533 24.094 25.768 69.765 39.969 110.393 28.258 15.432 42.901 28.543 50.413 37.485a459.929 459.929 0 0 1 7.756-28.441 70166.88 70166.88 0 0 0 62.988 43.886c-11.622 18.467-21.08 39.472-28.046 62.539a29665.034 29665.034 0 0 1-54.32 4.054c1.061-25.128 4.533-50.698 10.33-76.329-11.568-11.854-34.328-23.944-44.092-28.789a11528.604 11528.604 0 0 1 22.814 66.124l-6.892.4a4018.27 4018.27 0 0 0-11.949-31.265c-12.329 9.663-18.086 25.061-20.666 34.899 8.289-2.918 16.57-5.879 24.884-8.831 8.125 35.435 11.746 72.948 10.514 111.658-24.122-8.56-48.223-17.106-72.35-25.693 6.3-20.829 9.893-43.588 10.512-67.716 6.559-2.314 13.126-4.695 19.671-6.982 2.681-23.577 17.991-41.28 23.686-47.085-14.172-36.662-30.844-79.201-30.844-79.201-.788 6.32-2.552 13.023-4.668 19.446 3.457 3.994 7.009 7.954 10.451 11.956-4.544 8.633-7.783 17.377-9.675 25.998a7172.63 7172.63 0 0 1-30.661-5.26c6.159-11.806 13.351-22.618 21.421-32.279 7.832-32.015.28-43.642.28-43.642-5.703-27.884-22.531-65.451-41.269-101.371-4.246 11.676-6.356 26.475-7.389 39.193 3.599.783 7.322 1.483 11.05 2.007 1.557 13.187 3.13 26.346 4.633 39.505-16.555 5.526-33.905 8.888-51.584 10.05 2.599-19.058 5.145-38.124 7.739-57.196-2.226 1.286-4.417 2.64-6.63 3.96-4.938-8.539-11.437-16.575-19.378-23.958 1.341-3.109 2.689-6.124 4.002-9.206-6.335-6.621-11.108-7.172-11.108-7.172 1.181 11.724 1.86 42.894 2.228 76.936 9.036 9.758 16.398 22.706 21.733 33.858 8.369-5.334 16.752-10.669 25.121-16.01 16.902 12.527 34.505 22.291 52.203 29.102-7.037 21.182-14.031 42.357-21.106 63.531-27.285-19.916-51.142-42.52-71.147-67.11 3.259-2.068 6.553-4.158 9.82-6.26-5.316-9.377-11.786-17.262-16.461-22.393.421 51.045.284 103.282.284 103.282 11.611 6.954 19.986 15.459 25.804 22.985l-.653-20.366c28.006-6.579 57.074-9.117 86.367-7.504-8.036 31.544-16.058 63.068-24.109 94.592-18.548-10.579-38.81-18.44-60.136-23.406-.338-10.723-.722-21.508-1.082-32.232-9.804-13.534-25.678-22.699-25.678-22.699 2.169 35.661-2.075 65.484-4.178 77.535a234.528 234.528 0 0 0 27.768 5.157c2.994 21.018 5.988 42.023 8.981 63.048-27.142 9.601-55.808 15.243-85.05 16.787 3.467-24.312 6.934-48.589 10.356-72.888m12.877-42.785a1410.48 1410.48 0 0 1 5.251 6.036 163.404 163.404 0 0 0-7.366 16.023c6.994 2.743 14.18 5.11 21.488 7.152 1.908-10.159 2.737-23.434 2.881-38.118-10.401 2.362-17.45 5.607-22.254 8.907m-71.376-177.04c22.437 42.676 33.095 88.013 36.6 105.235 5.865 4.375 11.741 8.79 17.62 13.173-5.148 18.255-8.257 36.253-9.421 53.699 3.504-4.484 7.121-8.818 10.928-12.989 3.702 4.266 7.423 8.511 11.163 12.805 9.09-7.192 20.844-10.649 26.784-12.016-.393-53.23-8.583-119.225-8.583-119.225-7.047 5.899-12.649 14.581-16.926 23.169 3.913 2.627 8.015 5.055 12.264 7.185-2.044 9.696-4.054 19.379-6.106 29.108a155.198 155.198 0 0 1-38.968-5.171 27233.446 27233.446 0 0 0 20.148-40.852c2.599 2.313 5.313 4.456 8.12 6.504 8.668-19.365 19.791-30.599 19.791-30.599-.589-9.661-1.484-24.828-2.511-42.757-14.646 1.769-23.223 11.227-28.024 19.991 1.573-.123 3.137-.251 4.73-.354-.613 17.419-3.579 35.281-8.972 53.081-10.108-6.942-20.198-13.888-30.372-20.89 5.496-8.9 10.006-18.95 13.29-30.123 3.531-.258 7.103-.564 10.648-.856 3.257-9.023 8.72-16.44 14.636-22.332-8.607.783-17.215 1.183-25.825 1.027-2.518-13.336-5.1-26.686-7.631-40.015-12.976 30.367-23.383 53.202-23.383 53.202m133.834-41.738a150.873 150.873 0 0 0 15.159 5.191c.259-5.007.694-10.069 1.292-15.092a3128.094 3128.094 0 0 1-16.451 9.901m-54.932-7.437a72397.829 72397.829 0 0 1-7.311-134.249c-3.582 15.944-11.809 39.65-21.495 64.778 2.926 12.485 3.842 27.046 3.899 39.988 2.705-2.062 5.386-4.192 7.974-6.417 5.635 11.929 11.268 23.938 16.933 35.9m72.472-10.567c1.837-12.227 4.164-23.311 5.777-30.306-28.142-51.794-57.149-95.953-57.149-95.953-1.566 11.063-1.266 94.333-1.266 94.333 5.635 4.662 10.221 9.098 13.928 13.234.838-1.96 1.737-3.925 2.572-5.871 12.718 6.417 24.871 14.676 36.138 24.563M443.5 627.159a186.587 186.587 0 0 0 19.63-11.786c-.765-9.852-2.336-19.242-3.813-26.597-5.244 13.131-10.683 26.17-15.817 38.383m360.204-28.803c10.057 1.769 18.569 2.974 24.912 3.756a6150.503 6150.503 0 0 0 18.758-15.119c-7.553 2.593-15.05 6.444-22.189 11.505-3.544-2.482-7.123-5.007-10.696-7.525-3.803 2.28-7.635 4.797-10.785 7.383m-173.277 1.858c-2.911-8.478-5.354-17.018-7.281-25.578 1.449-.156 2.879-.305 4.37-.469-6.54-12.86-13.12-27.305-16.127-34.062-34.783-19.964-59.877-37.45-59.877-37.45 2.333 5.456 9.458 21.324 18.194 40.825 15.922 10.866 28.231 26.455 36.158 38.437a684.25 684.25 0 0 0 4.231-5.328c7.22 7.219 14.012 15.147 20.332 23.625m-36.477-3.158c2.457-3.143 4.94-6.253 7.396-9.389-8.015-9.921-15.752-17.208-21.597-22.019 4.715 10.438 9.607 21.195 14.201 31.408m90.7-34.98c38.669 18.338 79.787 28.802 110.196 34.654 3.538-2.395 8.852-5.994 14.343-9.54-.749-.496-1.476-1.021-2.15-1.503 5.98-7.526 12.86-14.521 20.604-20.904-25.68 3.436-50.972 4.336-75.542 2.654 1.096-5.831 2.15-11.656 3.238-17.452-52.392.721-70.689 12.091-70.689 12.091M468.064 428.623c-6.614 4.218-16.365 10.05-28.919 16.291-12.476 6.415-27.812 13.05-45.18 19.582-8.791 3.035-17.902 6.478-27.636 9.166-4.885 1.332-9.763 2.959-14.846 4.162-5.056 1.226-10.19 2.45-15.392 3.696-23.903 5.402-46.786 8.173-67.342 9.477 14.235 7.825 30.085 14.127 47.46 18.502.758 6.574 1.583 13.173 2.331 19.732 19.504-3.966 49.061-7.953 68.937-1.027 41.809-33.523 84.335-66.729 85.587-92.15.181-3.696.338-7.431.504-11.18a174.087 174.087 0 0 1-5.504 3.749m71.784 12.052c.198 27.133 35.016 41.607 51.36 53.936 7.694-.836 18.282-1.884 29.183-3.49-1.722-1.966-3.436-3.913-5.164-5.9 7.634-5.28 15.731-10.091 24.045-14.69-6.095-1.993-12.05-4.048-17.8-6.035-17.351-6.532-32.714-13.167-45.167-19.582-12.58-6.241-22.323-12.073-28.904-16.291-3.443-2.212-5.961-4.015-7.607-5.253 0 5.723 0 11.472.054 17.305m242.825 47.284c7.984.115 15.207.231 21.536-.343 4.585-.21 8.749-.427 12.418-.619 3.49-.17 6.23-.462 7.642-.462-.192-2.443-.586-6.715-.492-8.254-1.428.135-1.171.177-2.708.34-5.804.435-12.377 1.559-19.686 1.531-29.169 1.627-69.987-.496-113.637-10.151-1.843-.422-3.64-.83-5.478-1.245.116 2.727.198 5.463.315 8.177 32.571 7.227 63.386 10.099 88.326 10.935l1.63-.003c3.498 0 6.88.047 10.134.094m-591.482-1.424c1.384 0 4.14.292 7.651.462 3.654.192 7.792.409 12.398.619 6.33.574 13.546.458 21.522.343 3.754-.055 7.676-.109 11.754-.091 25.485-.905 57.087-3.776 90.415-11.35 5.161-1.204 10.248-2.409 15.296-3.592 5.029-1.183 9.826-2.796 14.687-4.103 9.659-2.584 18.752-5.871 27.452-8.757 17.262-6.254 32.64-12.424 45.21-18.412 12.664-5.77 22.618-11.057 29.46-14.772 2.766-1.443 4.869-2.619 6.583-3.572.14-3.478.272-7.016.384-10.534-1.769 1.219-4.221 2.796-7.504 4.749-7.018 4.192-17.399 9.901-30.637 16.107-13.173 6.328-29.371 12.846-47.544 19.398-9.234 2.947-18.818 6.41-28.983 9.05-5.066 1.395-10.21 2.96-15.487 4.219-5.327 1.232-10.696 2.457-16.15 3.702-43.683 9.655-84.454 11.778-113.628 10.151-7.317.028-13.894-1.096-19.692-1.531-1.521-.163-1.269-.205-2.674-.34.069 1.539-.313 5.811-.513 8.254m490.874-23.04c2.252.49 4.484 1.001 6.756 1.531 43.228 9.547 83.495 12.194 112.475 11.492 7.253.322 30.401-1.667 34.553-1.849 0 0-.763-7.792-.696-8.929 0 0-3.939.396-7.674.783-5.865.517-12.602 1.532-20.017 1.49-29.777 1.702-71.268-.524-115.809-9.989-3.348-.721-6.6-1.387-9.873-2.136.087 2.531.197 5.083.285 7.607m-355.432 1.531c5.409-1.238 10.707-2.429 15.97-3.64 5.267-1.239 10.339-2.763 15.36-4.103 10.132-2.551 19.659-5.913 28.82-8.73 18.137-6.226 34.29-12.342 47.572-18.235 13.374-5.71 23.914-10.927 31.21-14.554 3.74-1.845 6.564-3.28 8.482-4.246.103-3.11.188-6.296.304-9.419-1.841 1.192-4.603 2.887-8.254 4.879-7.267 4.063-17.976 9.609-31.633 15.576-13.527 6.219-30.126 12.493-48.763 18.929-9.451 2.816-19.215 6.281-29.619 8.812-5.178 1.382-10.451 2.749-15.803 4.178-5.453 1.184-10.913 2.374-16.459 3.551-44.568 9.465-86.063 11.691-115.809 9.989-7.45.042-14.156-.973-20.048-1.49-3.705-.387-7.666-.783-7.666-.783.065 1.137-.69 8.929-.69 8.929 4.18.182 27.281 2.171 34.558 1.849 28.986.702 69.204-1.945 112.468-11.492m213.161-42.805c1.783.966 4.601 2.497 8.655 4.661 6.798 3.715 16.752 9.002 29.409 14.772 12.601 5.988 27.951 12.158 45.199 18.412 7.112 2.368 14.543 4.871 22.243 7.179 3.484-1.852 7.092-3.497 10.697-5.192-10.144-2.633-19.678-6.076-28.87-9.023-18.174-6.552-34.375-13.07-47.514-19.398-13.242-6.206-23.638-11.915-30.654-16.107-4.552-2.674-7.519-4.687-9.111-5.898-.027 3.523-.054 7.035-.054 10.594m.129-21.753c1.816.735 5.206 2.395 10.358 4.754 7.477 3.492 18.377 8.493 32.094 14.052 13.65 5.702 30.266 11.602 48.814 17.718 9.418 2.716 19.161 6.009 29.504 8.478 5.137 1.341 10.348 2.681 15.683 4.057 5.355 1.155 10.805 2.32 16.312 3.517 44.13 9.404 85.12 12.112 114.65 11.377 7.403.244 30.675-1.258 34.933-1.469 0 0-.204-7.193-.163-7.648-2.818.29-3.654.36-6.955.699-6.034.545-12.919 1.45-20.548 1.424-30.51 1.577-73.023-.933-118.667-10.705-22.91-4.49-44.227-10.941-63.484-16.922-19.104-6.532-36.199-12.852-50.105-19.078-14.011-6.016-25.109-11.533-32.58-15.603-4.734-2.544-7.893-4.443-9.649-5.613-.054 3.633-.148 7.261-.197 10.962M322.78 453.044c5.517-1.197 10.926-2.362 16.271-3.517 5.347-1.376 10.587-2.716 15.751-4.057 10.33-2.469 20.012-5.762 29.457-8.478 18.565-6.116 35.161-12.016 48.787-17.718 13.727-5.559 24.658-10.56 32.143-14.052 4.204-1.952 7.189-3.372 9.169-4.264.115-3.683.197-7.301.271-10.983-1.891 1.205-4.816 2.94-8.954 5.144-7.471 4.07-18.542 9.587-32.592 15.603-13.931 6.226-30.963 12.546-50.101 19.078-19.255 5.981-40.559 12.432-63.479 16.922-45.583 9.772-88.156 12.282-118.647 10.705-7.613.026-14.52-.879-20.549-1.424-3.29-.339-4.154-.409-6.985-.699.073.455-.14 7.648-.14 7.648 4.261.211 27.555 1.713 34.941 1.469 29.531.735 70.5-1.973 114.657-11.377m217.083-42.227c1.714.784 5 2.511 10.03 4.947 7.293 3.627 17.854 8.844 31.196 14.554 13.276 5.893 29.456 12.009 47.568 18.235 9.159 2.817 18.686 6.179 28.825 8.73 1.794.463 3.673.959 5.489 1.45 3.675-1.579 7.479-3.049 11.256-4.511-5.028-1.342-9.983-2.634-14.896-3.927-10.369-2.531-20.154-5.996-29.585-8.812-18.63-6.436-35.192-12.71-48.786-18.929-13.608-5.967-24.298-11.513-31.6-15.576-4.679-2.584-7.777-4.517-9.437-5.721-.034 3.171-.034 6.376-.06 9.56m.272-22.107c1.876.721 5.306 2.354 10.492 4.626a733.157 733.157 0 0 0 33.097 14.045c14.056 5.757 31.135 11.675 50.201 17.935 19.146 5.717 40.363 11.956 63.034 16.412 45.27 9.67 87.245 12.745 117.53 12.084 7.594.279 36.531-1.468 36.531-1.468s-.019-4.103 0-4.948c-1.005.062-32.85 1.558-38.973 1.585-6.071.015-12.126-.081-18.099-.394-78.332-4.089-120.341-18.337-153.138-28.857-32.811-10.629-58.489-21.582-75.908-29.776-8.716-4.162-15.371-7.567-19.84-9.988-2.063-1.137-3.601-2.04-4.71-2.688-.096 3.736-.15 7.601-.217 11.432m-221.647 53.018c22.659-4.456 43.868-10.695 63.083-16.412 19.028-6.26 36.114-12.178 50.162-17.935 14.104-5.586 25.311-10.533 33.102-14.045 4.619-2.074 7.811-3.524 9.804-4.374.066-3.838.136-7.689.195-11.548-1.113.647-2.552 1.497-4.467 2.552-4.42 2.421-11.094 5.826-19.801 9.988-17.436 8.194-43.101 19.147-75.928 29.776-32.797 10.52-74.82 24.768-153.107 28.857-5.985.313-12.054.409-18.13.394-6.107-.027-37.958-1.523-39.002-1.585.079.845 0 4.948 0 4.948s28.966 1.747 36.57 1.468c30.255.661 72.244-2.414 117.519-12.084m221.87-64.897c14.576 6.863 113.333 52.766 222.583 62.748 50.916 4.659 91.143.592 94.273.34 0 0-2.003-387.456-2.15-412.788-41.916 11.573-179.681 31.64-278.812 18.255-2.722 12.677-31.422 146.538-35.894 331.445m-382.131 63.088c3.151.252 43.387 4.319 94.291-.34 108.644-9.948 206.918-55.387 222.319-62.642 1.797-143.044-13.119-290.276-26.86-332.857-99.547 15.902-244.402-5.022-287.568-16.949-.17 25.332-2.182 412.788-2.182 412.788"/></clipPath><linearGradient id="b" gradientTransform="scale(-893.89075 893.89075) rotate(-90 .568 1.125)" gradientUnits="userSpaceOnUse" x2="1"><stop offset="0" stop-color="#ad8d4d"/><stop offset=".178" stop-color="#7c6336"/><stop offset=".506" stop-color="#f9cc6d"/><stop offset=".859" stop-color="#856a3a"/><stop offset="1" stop-color="#ad8d4d"/></linearGradient></defs><g clip-path="url(#a)" transform="matrix(1.33333 0 0 -1.33333 0 1333.333)"><path d="M475.102 908.481c-13.333-2.266-26.672-4.565-39.992-6.845 4.794-9.24 10.044-17.99 15.695-26.36-22.213.926-44.474 1.844-66.686 2.769 10.272-37.361 24.837-72.159 43.109-103.581 5.065 3.817 10.172 7.587 15.228 11.404-11.51-50.93-31.857-84.155-31.857-84.155-11.143 26.578-24.962 50.305-38.857 70.465 5.536 22.481 3.427 45.017.852 59.449 3.102-.708 6.231-1.436 9.371-2.171 2.072 17.794 1.756 36.362-.931 55.292-11.34-5.531-22.683-11.03-34.032-16.521 4.206-9.873 7.185-20.848 8.822-32.633a598.947 598.947 0 0 0 9.743-2.299c2.804-18.665-.922-38.561-3.191-48.059-10.489 14.179-20.732 26.141-29.415 35.64 7.761 34.777 11.244 71.52 10.009 109.427-24.093-8.574-48.198-17.161-72.329-25.727 6.293-20.828 9.896-43.575 10.506-67.716 10.182-3.654 20.378-7.246 30.565-10.873 7.165-7.213 13.822-14.855 20.004-22.544-8.58-.455-26.458-.489-43.439 5.002a301.16 301.16 0 0 1 7.142 3.239c-18.764 31.116-42.228 60.599-70.019 87.611-11.381-22.909-22.808-45.833-34.209-68.756 19.008-10.595 37.45-24.455 54.658-41.398 10.871 4.926 21.774 9.887 32.643 14.826 13.487-7.307 35.18-15.282 62.015-11.683 18.593-24.726 29.187-45.594 33.593-53.48-6.954 2.047-13.555 3.401-19.542 4.313-1.113 8.628-2.181 17.249-3.283 25.843-21.618 2.987-42.571 8.641-62.317 16.82-4.066-32.267-8.165-64.545-12.227-96.812 28.339 2.123 56.047 7.784 82.526 16.808-1.215 9.77-2.477 19.541-3.723 29.325 21.611-5.129 30.855-19.242 30.855-19.242 10.195-22.666 24.723-61.518 38.549-100.05-6.562 2.83-16.653 7.934-31.334 16.868 2.77 1.755 5.509 3.497 8.237 5.239-14.234 17.549-31.255 33.633-50.688 47.827-5.022-15.092-10.057-30.17-15.062-45.254 12.612-4.872 25.163-11.807 37.216-20.719 3.971 2.51 7.941 5.048 11.911 7.579 13.276-9.498 30.738-21.522 46.586-30.897 18.007-50.911 33.14-96.261 33.14-96.261-10.574 8.805-58.956 40.825-104.449 70.438-11.939 17.976-22.182 41.465-29.684 61.333 1.357-.102 2.759-.224 4.167-.327-.622 17.433-3.578 35.295-8.96 53.095a10448.814 10448.814 0 0 1-30.347-20.856c5.497-8.906 9.968-19.018 13.251-30.143 3.157-.251 6.3-.523 9.481-.775 6.257-21.625 13.251-40.635 14.684-44.452a22005.21 22005.21 0 0 1-43.295 27.897c-8.091 5.198-17.515 14.071-27.065 24.441 10.319 21.257 9.932 55.965 7.549 68.818 2.698.307 5.366.653 8.044.974-4.175 17.411-10.785 34.749-19.774 51.603-8.804-9.044-17.568-18.106-26.346-27.176 7.325-7.798 13.904-17.079 19.464-27.605 3.943.476 7.88.931 11.86 1.395 1.031-25.156-6.321-51.597-8.652-59.225-18.78 21.699-36.882 46.882-45.33 59.013a246.005 246.005 0 0 0 24.958 6.614c-14.868 28.933-29.741 57.885-44.602 86.809a330.044 330.044 0 0 1-58.615-60.483c14.077-15.895 28.18-31.763 42.288-47.67 8.859 4.45 17.94 8.321 27.166 11.696 7.386-12.466 16.701-23.713 25.156-34.675-5.471-.714-24.006-1.034-38.21 2.851.507 4.403 1.058 8.757 1.562 13.146-16.544 5.505-33.923 8.887-51.586 10.071 2.714-20.148 5.402-40.247 8.144-60.388 12.275 5.218 25.322 8.846 38.794 10.826.8 6.851 1.626 13.751 2.426 20.637 8.666-2.905 22.472-6.049 42.837-6.479 12.88-16.975 23.016-30.972 23.016-30.972-57.725 18.542-98.663 5.872-110.149 1.443-2.187 3.565-4.385 7.138-6.559 10.695-17.685-3.286-34.787-4.164-50.93-2.823-2.521-18.875-5.045-37.743-7.511-56.611 28.363 5.096 55.121 13.506 79.63 24.916l-8.883 14.473c16.05 5.076 51.828 12.588 92.514-3.327 13.846-5.376 31.186-14.139 50.13-25.094-16.626-1.926-46.548-5.348-67.247-7.396-.629 4.845-1.254 9.669-1.843 14.534-21.651 2.939-42.588 8.608-62.351 16.792-4.066-32.299-8.138-64.538-12.2-96.832 28.313 2.137 56.057 7.785 82.535 16.814-1.744 13.942-3.538 27.89-5.313 41.805 22.396 1.267 58.762 3.424 81.607 5.179 22.6-13.853 46.589-30.259 69.005-47.453-10.114-1.687-30.963-3.92-55.751 0 .575 4.545 1.12 9.104 1.657 13.704-28.19.067-57.162-3.62-86.223-11.158 10.352-16.365 20.647-32.71 30.979-49.053-7.481.45-14.662.706-21.382.782-12.867-.382-24.193-.15-33.542-1.443-4.59-.461-8.753-.892-12.445-1.279-3.779-.421-7.073-.796-9.849-1.095.092-3.423.419-8.601.537-10.097-3.603-.354-9.574-.986-12.468-1.301 0 0 .354-7.137.439-8.328.109-1.844.272-2.729.414-3.04-1.659-.157-7.739-.3-7.787-.518l.098-1.396c.014-1.067.08-2.089.12-3.081.064-1.49.17-2.858.234-4.042.028-.626.096-.952.14-1.409-1.976-.223-8.856-.823-8.856-.823.045-1.13.194-6.009.245-6.893-1.752-.109-10.332-.721-11.077-.823V399.27c0-104.942.268-199.937.745-268.735.34-34.246.609-62.034.83-81.434.174-9.493.853-29.897.963-29.897.176 0 157.073 32.374 300.905 21.182 28.891-12.255 87.986-15.173 117.033.713 141.005 9.044 290.693-21.895 290.836-21.895.129 0 .809 20.404 1.026 29.897.171 19.4.436 47.188.778 81.434.461 68.798.747 163.793.747 268.735V446.444c-.747.102-9.302.714-11.076.823.047.884.19 5.763.257 6.893 0 0-6.912.6-8.859.823.035.457.076.783.129 1.409.082 1.184.17 2.552.225 4.042.068.992.095 2.014.142 3.081l.104 1.396c-.075.218-6.118.361-7.828.518.152.311.307 1.196.439 3.04.086 1.191.441 8.328.441 8.328-2.878.315-8.866.947-12.471 1.301.129 1.496.42 6.674.55 10.097-2.796.299-6.077.674-9.873 1.095-3.689.387-7.825.818-12.438 1.279-9.322 1.293-20.673 1.061-33.558 1.443-24.844-.293-55.591-2.77-88.061-9.866.257 6.723.501 13.405.762 20.106-14.453 1.246-29.363 4.628-44.426 10.213-4.845-5.558-9.689-11.043-14.567-16.581-5.921 1.095-15.692 3.122-25.367 6.095 31.762 28.219 72.561 53.68 72.561 53.68 40.764-15.288 69.839-14.97 84.945-12.955 1.374-7.294 2.708-14.622 4.054-21.965 20.759-3.816 39.859-10.021 56.945-18.331 10.69 19.605 21.332 39.193 32.043 58.817-3.403.653-6.785 1.218-10.173 1.77a13432.19 13432.19 0 0 0 8.308 23.623c2.789-2.271 5.633-4.585 8.463-6.844 20.931 12.111 42.173 20.963 63.226 26.496-5.294 25.04-10.642 50.072-15.949 75.098-33.654-19.235-63.729-41.934-89.659-67.423a704.845 704.845 0 0 0 5.653-4.573c-14.628-1.13-29.592-3.477-42.438-5.837-1.829 3.673-2.877 7.926-3.436 12.111 1.85-.728 3.647-1.456 5.476-2.171 4.432 8.308 7.997 17.235 10.705 26.611-8.954.552-17.854 1.109-26.823 1.634.748-7.063.68-14.411-.142-21.814 2.117-.851 4.171-1.634 6.239-2.478.434-5.994 1.891-11.553 2.904-14.826-14.54-2.851-25.568-5.477-28.857-6.008 2.921 20.386 18.04 47.63 25.341 59.891 7.92-5.253 15.602-10.955 22.93-17.133 17.42 12.207 34.791 24.379 52.203 36.573-11.119 25.666-25.551 50.005-43.031 72.397-21.162-24.685-42.323-49.413-63.485-74.111 9.242-4.363 18.243-9.357 26.987-14.834-15.794-19.617-32.988-66.246-32.988-66.246-8.151-2.035-16.649-4.662-25.217-7.704.055 9.01-2.109 18.788-5.142 27.981.175 0 .352-.015.543-.015-.626 17.432-3.613 35.274-8.967 53.047-10.133-6.934-20.236-13.888-30.375-20.829 5.519-8.913 9.982-19.004 13.253-30.156 5.377-.408 10.732-.83 16.088-1.265 3.966-15.263 4.367-26.605 4.089-32.675-24.237-9.471-49.01-21.902-70.989-33.986 2.402 7.599 6.402 17.316 10.267 25.89 6.608-.688 13.221-1.375 19.849-2.082 6.354 12.519 13.995 23.522 22.521 32.83-10.479 10.533-20.99 21.113-31.476 31.633-2.423-4.723-4.736-9.478-6.818-14.228-10.234 2.273-20.426 4.586-30.638 6.852 6.64 14.609 11.082 24.421 11.082 24.421 30.354 17.079 43.637 35.001 48.924 44.487 4.857-10.316 9.77-20.59 14.656-30.892 30.843 19.303 59.891 43.302 86.414 71.546-23.129 10.962-46.215 21.978-69.336 32.975-10.248-19.175-23.808-37.839-40.457-55.32 2.02-4.232 4.001-8.464 6.041-12.69-19.67-25.747-43.051-33.552-43.051-33.552 9.533 24.094 25.768 69.765 39.969 110.393 28.258 15.432 42.901 28.543 50.413 37.485a459.929 459.929 0 0 1 7.756-28.441 70166.88 70166.88 0 0 0 62.988 43.886c-11.622 18.467-21.08 39.472-28.046 62.539a29665.034 29665.034 0 0 1-54.32 4.054c1.061-25.128 4.533-50.698 10.33-76.329-11.568-11.854-34.328-23.944-44.092-28.789a11528.604 11528.604 0 0 1 22.814 66.124l-6.892.4a4018.27 4018.27 0 0 0-11.949-31.265c-12.329 9.663-18.086 25.061-20.666 34.899 8.289-2.918 16.57-5.879 24.884-8.831 8.125 35.435 11.746 72.948 10.514 111.658-24.122-8.56-48.223-17.106-72.35-25.693 6.3-20.829 9.893-43.588 10.512-67.716 6.559-2.314 13.126-4.695 19.671-6.982 2.681-23.577 17.991-41.28 23.686-47.085-14.172-36.662-30.844-79.201-30.844-79.201-.788 6.32-2.552 13.023-4.668 19.446 3.457 3.994 7.009 7.954 10.451 11.956-4.544 8.633-7.783 17.377-9.675 25.998a7172.63 7172.63 0 0 1-30.661-5.26c6.159-11.806 13.351-22.618 21.421-32.279 7.832-32.015.28-43.642.28-43.642-5.703-27.884-22.531-65.451-41.269-101.371-4.246 11.676-6.356 26.475-7.389 39.193 3.599.783 7.322 1.483 11.05 2.007 1.557 13.187 3.13 26.346 4.633 39.505-16.555 5.526-33.905 8.888-51.584 10.05 2.599-19.058 5.145-38.124 7.739-57.196-2.226 1.286-4.417 2.64-6.63 3.96-4.938-8.539-11.437-16.575-19.378-23.958 1.341-3.109 2.689-6.124 4.002-9.206-6.335-6.621-11.108-7.172-11.108-7.172 1.181 11.724 1.86 42.894 2.228 76.936 9.036 9.758 16.398 22.706 21.733 33.858 8.369-5.334 16.752-10.669 25.121-16.01 16.902 12.527 34.505 22.291 52.203 29.102-7.037 21.182-14.031 42.357-21.106 63.531-27.285-19.916-51.142-42.52-71.147-67.11 3.259-2.068 6.553-4.158 9.82-6.26-5.316-9.377-11.786-17.262-16.461-22.393.421 51.045.284 103.282.284 103.282 11.611 6.954 19.986 15.459 25.804 22.985l-.653-20.366c28.006-6.579 57.074-9.117 86.367-7.504-8.036 31.544-16.058 63.068-24.109 94.592-18.548-10.579-38.81-18.44-60.136-23.406-.338-10.723-.722-21.508-1.082-32.232-9.804-13.534-25.678-22.699-25.678-22.699 2.169 35.661-2.075 65.484-4.178 77.535a234.528 234.528 0 0 0 27.768 5.157c2.994 21.018 5.988 42.023 8.981 63.048-27.142 9.601-55.808 15.243-85.05 16.787 3.467-24.312 6.934-48.589 10.356-72.888m12.877-42.785a1410.48 1410.48 0 0 1 5.251 6.036 163.404 163.404 0 0 0-7.366 16.023c6.994 2.743 14.18 5.11 21.488 7.152 1.908-10.159 2.737-23.434 2.881-38.118-10.401 2.362-17.45 5.607-22.254 8.907m-71.376-177.04c22.437 42.676 33.095 88.013 36.6 105.235 5.865 4.375 11.741 8.79 17.62 13.173-5.148 18.255-8.257 36.253-9.421 53.699 3.504-4.484 7.121-8.818 10.928-12.989 3.702 4.266 7.423 8.511 11.163 12.805 9.09-7.192 20.844-10.649 26.784-12.016-.393-53.23-8.583-119.225-8.583-119.225-7.047 5.899-12.649 14.581-16.926 23.169 3.913 2.627 8.015 5.055 12.264 7.185-2.044 9.696-4.054 19.379-6.106 29.108a155.198 155.198 0 0 1-38.968-5.171 27233.446 27233.446 0 0 0 20.148-40.852c2.599 2.313 5.313 4.456 8.12 6.504 8.668-19.365 19.791-30.599 19.791-30.599-.589-9.661-1.484-24.828-2.511-42.757-14.646 1.769-23.223 11.227-28.024 19.991 1.573-.123 3.137-.251 4.73-.354-.613 17.419-3.579 35.281-8.972 53.081-10.108-6.942-20.198-13.888-30.372-20.89 5.496-8.9 10.006-18.95 13.29-30.123 3.531-.258 7.103-.564 10.648-.856 3.257-9.023 8.72-16.44 14.636-22.332-8.607.783-17.215 1.183-25.825 1.027-2.518-13.336-5.1-26.686-7.631-40.015-12.976 30.367-23.383 53.202-23.383 53.202m133.834-41.738a150.873 150.873 0 0 0 15.159 5.191c.259-5.007.694-10.069 1.292-15.092a3128.094 3128.094 0 0 1-16.451 9.901m-54.932-7.437a72397.829 72397.829 0 0 1-7.311-134.249c-3.582 15.944-11.809 39.65-21.495 64.778 2.926 12.485 3.842 27.046 3.899 39.988 2.705-2.062 5.386-4.192 7.974-6.417 5.635 11.929 11.268 23.938 16.933 35.9m72.472-10.567c1.837-12.227 4.164-23.311 5.777-30.306-28.142-51.794-57.149-95.953-57.149-95.953-1.566 11.063-1.266 94.333-1.266 94.333 5.635 4.662 10.221 9.098 13.928 13.234.838-1.96 1.737-3.925 2.572-5.871 12.718 6.417 24.871 14.676 36.138 24.563M443.5 627.159a186.587 186.587 0 0 0 19.63-11.786c-.765-9.852-2.336-19.242-3.813-26.597-5.244 13.131-10.683 26.17-15.817 38.383m360.204-28.803c10.057 1.769 18.569 2.974 24.912 3.756a6150.503 6150.503 0 0 0 18.758-15.119c-7.553 2.593-15.05 6.444-22.189 11.505-3.544-2.482-7.123-5.007-10.696-7.525-3.803 2.28-7.635 4.797-10.785 7.383m-173.277 1.858c-2.911-8.478-5.354-17.018-7.281-25.578 1.449-.156 2.879-.305 4.37-.469-6.54-12.86-13.12-27.305-16.127-34.062-34.783-19.964-59.877-37.45-59.877-37.45 2.333 5.456 9.458 21.324 18.194 40.825 15.922 10.866 28.231 26.455 36.158 38.437a684.25 684.25 0 0 0 4.231-5.328c7.22 7.219 14.012 15.147 20.332 23.625m-36.477-3.158c2.457-3.143 4.94-6.253 7.396-9.389-8.015-9.921-15.752-17.208-21.597-22.019 4.715 10.438 9.607 21.195 14.201 31.408m90.7-34.98c38.669 18.338 79.787 28.802 110.196 34.654 3.538-2.395 8.852-5.994 14.343-9.54-.749-.496-1.476-1.021-2.15-1.503 5.98-7.526 12.86-14.521 20.604-20.904-25.68 3.436-50.972 4.336-75.542 2.654 1.096-5.831 2.15-11.656 3.238-17.452-52.392.721-70.689 12.091-70.689 12.091M468.064 428.623c-6.614 4.218-16.365 10.05-28.919 16.291-12.476 6.415-27.812 13.05-45.18 19.582-8.791 3.035-17.902 6.478-27.636 9.166-4.885 1.332-9.763 2.959-14.846 4.162-5.056 1.226-10.19 2.45-15.392 3.696-23.903 5.402-46.786 8.173-67.342 9.477 14.235 7.825 30.085 14.127 47.46 18.502.758 6.574 1.583 13.173 2.331 19.732 19.504-3.966 49.061-7.953 68.937-1.027 41.809-33.523 84.335-66.729 85.587-92.15.181-3.696.338-7.431.504-11.18a174.087 174.087 0 0 1-5.504 3.749m71.784 12.052c.198 27.133 35.016 41.607 51.36 53.936 7.694-.836 18.282-1.884 29.183-3.49-1.722-1.966-3.436-3.913-5.164-5.9 7.634-5.28 15.731-10.091 24.045-14.69-6.095-1.993-12.05-4.048-17.8-6.035-17.351-6.532-32.714-13.167-45.167-19.582-12.58-6.241-22.323-12.073-28.904-16.291-3.443-2.212-5.961-4.015-7.607-5.253 0 5.723 0 11.472.054 17.305m242.825 47.284c7.984.115 15.207.231 21.536-.343 4.585-.21 8.749-.427 12.418-.619 3.49-.17 6.23-.462 7.642-.462-.192-2.443-.586-6.715-.492-8.254-1.428.135-1.171.177-2.708.34-5.804.435-12.377 1.559-19.686 1.531-29.169 1.627-69.987-.496-113.637-10.151-1.843-.422-3.64-.83-5.478-1.245.116 2.727.198 5.463.315 8.177 32.571 7.227 63.386 10.099 88.326 10.935l1.63-.003c3.498 0 6.88.047 10.134.094m-591.482-1.424c1.384 0 4.14.292 7.651.462 3.654.192 7.792.409 12.398.619 6.33.574 13.546.458 21.522.343 3.754-.055 7.676-.109 11.754-.091 25.485-.905 57.087-3.776 90.415-11.35 5.161-1.204 10.248-2.409 15.296-3.592 5.029-1.183 9.826-2.796 14.687-4.103 9.659-2.584 18.752-5.871 27.452-8.757 17.262-6.254 32.64-12.424 45.21-18.412 12.664-5.77 22.618-11.057 29.46-14.772 2.766-1.443 4.869-2.619 6.583-3.572.14-3.478.272-7.016.384-10.534-1.769 1.219-4.221 2.796-7.504 4.749-7.018 4.192-17.399 9.901-30.637 16.107-13.173 6.328-29.371 12.846-47.544 19.398-9.234 2.947-18.818 6.41-28.983 9.05-5.066 1.395-10.21 2.96-15.487 4.219-5.327 1.232-10.696 2.457-16.15 3.702-43.683 9.655-84.454 11.778-113.628 10.151-7.317.028-13.894-1.096-19.692-1.531-1.521-.163-1.269-.205-2.674-.34.069 1.539-.313 5.811-.513 8.254m490.874-23.04c2.252.49 4.484 1.001 6.756 1.531 43.228 9.547 83.495 12.194 112.475 11.492 7.253.322 30.401-1.667 34.553-1.849 0 0-.763-7.792-.696-8.929 0 0-3.939.396-7.674.783-5.865.517-12.602 1.532-20.017 1.49-29.777 1.702-71.268-.524-115.809-9.989-3.348-.721-6.6-1.387-9.873-2.136.087 2.531.197 5.083.285 7.607m-355.432 1.531c5.409-1.238 10.707-2.429 15.97-3.64 5.267-1.239 10.339-2.763 15.36-4.103 10.132-2.551 19.659-5.913 28.82-8.73 18.137-6.226 34.29-12.342 47.572-18.235 13.374-5.71 23.914-10.927 31.21-14.554 3.74-1.845 6.564-3.28 8.482-4.246.103-3.11.188-6.296.304-9.419-1.841 1.192-4.603 2.887-8.254 4.879-7.267 4.063-17.976 9.609-31.633 15.576-13.527 6.219-30.126 12.493-48.763 18.929-9.451 2.816-19.215 6.281-29.619 8.812-5.178 1.382-10.451 2.749-15.803 4.178-5.453 1.184-10.913 2.374-16.459 3.551-44.568 9.465-86.063 11.691-115.809 9.989-7.45.042-14.156-.973-20.048-1.49-3.705-.387-7.666-.783-7.666-.783.065 1.137-.69 8.929-.69 8.929 4.18.182 27.281 2.171 34.558 1.849 28.986.702 69.204-1.945 112.468-11.492m213.161-42.805c1.783.966 4.601 2.497 8.655 4.661 6.798 3.715 16.752 9.002 29.409 14.772 12.601 5.988 27.951 12.158 45.199 18.412 7.112 2.368 14.543 4.871 22.243 7.179 3.484-1.852 7.092-3.497 10.697-5.192-10.144-2.633-19.678-6.076-28.87-9.023-18.174-6.552-34.375-13.07-47.514-19.398-13.242-6.206-23.638-11.915-30.654-16.107-4.552-2.674-7.519-4.687-9.111-5.898-.027 3.523-.054 7.035-.054 10.594m.129-21.753c1.816.735 5.206 2.395 10.358 4.754 7.477 3.492 18.377 8.493 32.094 14.052 13.65 5.702 30.266 11.602 48.814 17.718 9.418 2.716 19.161 6.009 29.504 8.478 5.137 1.341 10.348 2.681 15.683 4.057 5.355 1.155 10.805 2.32 16.312 3.517 44.13 9.404 85.12 12.112 114.65 11.377 7.403.244 30.675-1.258 34.933-1.469 0 0-.204-7.193-.163-7.648-2.818.29-3.654.36-6.955.699-6.034.545-12.919 1.45-20.548 1.424-30.51 1.577-73.023-.933-118.667-10.705-22.91-4.49-44.227-10.941-63.484-16.922-19.104-6.532-36.199-12.852-50.105-19.078-14.011-6.016-25.109-11.533-32.58-15.603-4.734-2.544-7.893-4.443-9.649-5.613-.054 3.633-.148 7.261-.197 10.962M322.78 453.044c5.517-1.197 10.926-2.362 16.271-3.517 5.347-1.376 10.587-2.716 15.751-4.057 10.33-2.469 20.012-5.762 29.457-8.478 18.565-6.116 35.161-12.016 48.787-17.718 13.727-5.559 24.658-10.56 32.143-14.052 4.204-1.952 7.189-3.372 9.169-4.264.115-3.683.197-7.301.271-10.983-1.891 1.205-4.816 2.94-8.954 5.144-7.471 4.07-18.542 9.587-32.592 15.603-13.931 6.226-30.963 12.546-50.101 19.078-19.255 5.981-40.559 12.432-63.479 16.922-45.583 9.772-88.156 12.282-118.647 10.705-7.613.026-14.52-.879-20.549-1.424-3.29-.339-4.154-.409-6.985-.699.073.455-.14 7.648-.14 7.648 4.261.211 27.555 1.713 34.941 1.469 29.531.735 70.5-1.973 114.657-11.377m217.083-42.227c1.714.784 5 2.511 10.03 4.947 7.293 3.627 17.854 8.844 31.196 14.554 13.276 5.893 29.456 12.009 47.568 18.235 9.159 2.817 18.686 6.179 28.825 8.73 1.794.463 3.673.959 5.489 1.45 3.675-1.579 7.479-3.049 11.256-4.511-5.028-1.342-9.983-2.634-14.896-3.927-10.369-2.531-20.154-5.996-29.585-8.812-18.63-6.436-35.192-12.71-48.786-18.929-13.608-5.967-24.298-11.513-31.6-15.576-4.679-2.584-7.777-4.517-9.437-5.721-.034 3.171-.034 6.376-.06 9.56m.272-22.107c1.876.721 5.306 2.354 10.492 4.626a733.157 733.157 0 0 0 33.097 14.045c14.056 5.757 31.135 11.675 50.201 17.935 19.146 5.717 40.363 11.956 63.034 16.412 45.27 9.67 87.245 12.745 117.53 12.084 7.594.279 36.531-1.468 36.531-1.468s-.019-4.103 0-4.948c-1.005.062-32.85 1.558-38.973 1.585-6.071.015-12.126-.081-18.099-.394-78.332-4.089-120.341-18.337-153.138-28.857-32.811-10.629-58.489-21.582-75.908-29.776-8.716-4.162-15.371-7.567-19.84-9.988-2.063-1.137-3.601-2.04-4.71-2.688-.096 3.736-.15 7.601-.217 11.432m-221.647 53.018c22.659-4.456 43.868-10.695 63.083-16.412 19.028-6.26 36.114-12.178 50.162-17.935 14.104-5.586 25.311-10.533 33.102-14.045 4.619-2.074 7.811-3.524 9.804-4.374.066-3.838.136-7.689.195-11.548-1.113.647-2.552 1.497-4.467 2.552-4.42 2.421-11.094 5.826-19.801 9.988-17.436 8.194-43.101 19.147-75.928 29.776-32.797 10.52-74.82 24.768-153.107 28.857-5.985.313-12.054.409-18.13.394-6.107-.027-37.958-1.523-39.002-1.585.079.845 0 4.948 0 4.948s28.966 1.747 36.57 1.468c30.255.661 72.244-2.414 117.519-12.084m221.87-64.897c14.576 6.863 113.333 52.766 222.583 62.748 50.916 4.659 91.143.592 94.273.34 0 0-2.003-387.456-2.15-412.788-41.916 11.573-179.681 31.64-278.812 18.255-2.722 12.677-31.422 146.538-35.894 331.445m-382.131 63.088c3.151.252 43.387 4.319 94.291-.34 108.644-9.948 206.918-55.387 222.319-62.642 1.797-143.044-13.119-290.276-26.86-332.857-99.547 15.902-244.402-5.022-287.568-16.949-.17 25.332-2.182 412.788-2.182 412.788" fill="url(#b)"/></g></svg>